<svg width="21" height="21" fill="none" xmlns="http://www.w3.org/2000/svg"><path d="M16.554 12.916c-.43-.444-.947-.682-1.496-.682-.544 0-1.066.233-1.513.678l-1.399 1.386c-.115-.061-.23-.119-.34-.176a5.452 5.452 0 0 1-.438-.233c-1.31-.827-2.5-1.906-3.642-3.3-.553-.696-.925-1.281-1.195-1.875.363-.33.7-.674 1.027-1.004.124-.123.248-.25.372-.374.929-.924.929-2.12 0-3.045L6.722 3.09a18.372 18.372 0 0 1-.412-.418 20.835 20.835 0 0 0-.832-.819c-.429-.423-.942-.647-1.482-.647s-1.062.224-1.504.647l-.01.009-1.504 1.51a3.212 3.212 0 0 0-.96 2.046C-.088 6.703.293 7.9.585 8.683c.716 1.923 1.787 3.705 3.385 5.615a20.806 20.806 0 0 0 6.933 5.4c1.018.48 2.376 1.047 3.894 1.144.093.005.19.009.279.009 1.022 0 1.88-.365 2.553-1.091.004-.01.013-.014.017-.023.23-.277.496-.528.775-.796.19-.18.385-.37.575-.568.438-.453.668-.981.668-1.522 0-.546-.234-1.07-.681-1.51l-2.43-2.425zm1.584 4.634c-.005 0-.005.005 0 0-.173.185-.35.352-.54.537-.288.273-.58.56-.854.88-.447.476-.974.7-1.664.7-.066 0-.137 0-.203-.004-1.315-.084-2.536-.594-3.452-1.03a19.64 19.64 0 0 1-6.53-5.087c-1.51-1.809-2.518-3.481-3.187-5.277-.411-1.096-.561-1.95-.495-2.755.044-.515.243-.941.61-1.307l1.51-1.5c.216-.203.446-.313.672-.313.279 0 .504.167.646.308l.013.014c.27.25.527.51.797.787.137.141.278.282.42.427l1.208 1.201c.469.467.469.898 0 1.365-.128.127-.252.255-.38.378-.372.379-.726.73-1.111 1.074-.009.009-.018.013-.022.022-.38.378-.31.748-.23.999l.013.04c.314.756.757 1.47 1.43 2.319l.004.004c1.22 1.496 2.508 2.663 3.929 3.556.181.114.367.207.544.295.16.079.31.154.438.233.018.009.035.022.053.03.15.076.292.11.438.11.367 0 .598-.228.673-.303l1.513-1.505c.15-.15.39-.33.668-.33.274 0 .5.172.637.321a.743.743 0 0 0 .01.01l2.437 2.424c.456.449.456.91.005 1.377zM11.315 4.96c1.16.194 2.212.74 3.053 1.576a5.6 5.6 0 0 1 1.584 3.037c.049.29.301.493.589.493.035 0 .066-.005.101-.01a.595.595 0 0 0 .492-.686 6.775 6.775 0 0 0-1.916-3.674 6.838 6.838 0 0 0-3.695-1.906.6.6 0 0 0-.69.484.588.588 0 0 0 .482.687zm9.61 4.238a11.147 11.147 0 0 0-3.155-6.051A11.249 11.249 0 0 0 11.686.009.595.595 0 0 0 11 .493a.597.597 0 0 0 .491.687 10.072 10.072 0 0 1 5.438 2.803 9.951 9.951 0 0 1 2.819 5.408.593.593 0 0 0 .69.484.583.583 0 0 0 .487-.677z" opacity=".67" fill="#0F3964"/></svg>