<svg width="17" height="24" fill="none" xmlns="http://www.w3.org/2000/svg"><g opacity=".67" fill="#0F3964"><path d="M8.5 0C3.813 0 0 3.785 0 8.438c0 1.571.439 3.105 1.269 4.436l6.747 10.794a.71.71 0 0 0 .602.332h.006a.71.71 0 0 0 .602-.342L15.8 12.76A8.38 8.38 0 0 0 17 8.438C17 3.785 13.187 0 8.5 0zm6.085 12.038l-5.978 9.908-6.134-9.813a6.984 6.984 0 0 1-1.066-3.695c0-3.878 3.187-7.041 7.093-7.041s7.088 3.163 7.088 7.04c0 1.272-.35 2.517-1.003 3.601z"/><path d="M8.5 4.219c-2.343 0-4.25 1.892-4.25 4.218a4.229 4.229 0 0 0 4.25 4.22 4.226 4.226 0 0 0 4.25-4.22c0-2.326-1.906-4.218-4.25-4.218zm0 7.04c-1.57 0-2.843-1.267-2.843-2.822 0-1.55 1.28-2.821 2.843-2.821 1.562 0 2.838 1.27 2.838 2.822a2.829 2.829 0 0 1-2.838 2.82z"/></g></svg>