<svg width="29" height="24" fill="none" xmlns="http://www.w3.org/2000/svg"><path d="M28.22 3.237a11.517 11.517 0 0 1-3.325.916A5.836 5.836 0 0 0 27.44.937a11.637 11.637 0 0 1-3.678 1.412A5.76 5.76 0 0 0 19.536.512c-3.197 0-5.789 2.604-5.789 5.815 0 .455.051.9.15 1.326-4.81-.243-9.076-2.56-11.93-6.078a5.794 5.794 0 0 0-.784 2.923A5.821 5.821 0 0 0 3.758 9.34a5.768 5.768 0 0 1-2.622-.73v.073a5.816 5.816 0 0 0 4.643 5.704 5.838 5.838 0 0 1-1.526.204 5.53 5.53 0 0 1-1.09-.109c.738 2.313 2.875 3.994 5.407 4.04a11.58 11.58 0 0 1-7.19 2.486c-.467 0-.927-.028-1.38-.08a16.307 16.307 0 0 0 8.873 2.618c10.65 0 16.47-8.863 16.47-16.55l-.019-.753a11.591 11.591 0 0 0 2.895-3.005z" fill="#0F3964" opacity=".65"/></svg>