<svg width="23" height="18" viewBox="0 0 23 18" fill="none" xmlns="http://www.w3.org/2000/svg">
<g opacity="0.67">
<path d="M20.6637 0H1.99115C0.8946 0 0 0.88877 0 1.98032V15.1825C0 16.2703 0.890617 17.1628 1.99115 17.1628H20.6637C21.7575 17.1628 22.6548 16.277 22.6548 15.1825V1.98032C22.6548 0.892466 21.7642 0 20.6637 0ZM20.3887 1.32022L11.3696 10.2903L2.27252 1.32022H20.3887ZM1.32743 14.9091V2.2474L7.72029 8.551L1.32743 14.9091ZM2.26606 15.8426L8.66294 9.48047L10.9044 11.6906C11.1639 11.9465 11.5826 11.9456 11.841 11.6886L14.0265 9.51493L20.3888 15.8426H2.26606ZM21.3274 14.9091L14.9651 8.58141L21.3274 2.2537V14.9091Z" fill="#0F3964"/>
</g>
</svg>
