<svg width="15" height="27" viewBox="0 0 15 27" fill="none" xmlns="http://www.w3.org/2000/svg">
<g opacity="0.65">
<path d="M14.4529 0.0056178L10.9702 0C7.05743 0 4.52885 2.60806 4.52885 6.64474V9.7084H1.02712C0.724527 9.7084 0.479492 9.95503 0.479492 10.2592V14.6981C0.479492 15.0023 0.724806 15.2487 1.02712 15.2487H4.52885V26.4495C4.52885 26.7537 4.77388 27 5.07648 27H9.64524C9.94783 27 10.1929 26.7534 10.1929 26.4495V15.2487H14.2872C14.5898 15.2487 14.8348 15.0023 14.8348 14.6981L14.8365 10.2592C14.8365 10.1132 14.7787 9.97328 14.6761 9.86992C14.5736 9.76655 14.4339 9.7084 14.2886 9.7084H10.1929V7.11129C10.1929 5.86302 10.4888 5.22933 12.1062 5.22933L14.4523 5.22849C14.7546 5.22849 14.9997 4.98187 14.9997 4.67794V0.556162C14.9997 0.25252 14.7549 0.00617958 14.4529 0.0056178Z" fill="#0F3964"/>
</g>
</svg>
