<svg width="29" height="24" viewBox="0 0 29 24" fill="none" xmlns="http://www.w3.org/2000/svg">
<g opacity="0.65">
<path d="M28.2195 3.23688C27.1809 3.69933 26.0664 4.01296 24.8955 4.15298C26.0911 3.43357 27.0063 2.29248 27.44 0.936963C26.3185 1.60318 25.0806 2.08695 23.7616 2.34919C22.7053 1.21695 21.2029 0.511719 19.5365 0.511719C16.3395 0.511719 13.7473 3.11642 13.7473 6.32711C13.7473 6.78247 13.7984 7.22722 13.8972 7.65251C9.08669 7.40972 4.82107 5.09386 1.96615 1.57483C1.46709 2.43245 1.18319 3.43176 1.18319 4.49848C1.18319 6.5167 2.20597 8.29746 3.75776 9.3393C2.80904 9.30743 1.91676 9.04518 1.13561 8.60928V8.68193C1.13561 11.4993 3.13177 13.8506 5.7786 14.3857C5.29365 14.5168 4.78229 14.5895 4.25327 14.5895C3.87945 14.5895 3.51794 14.5523 3.16349 14.4814C3.90057 16.7937 6.03783 18.4752 8.57007 18.5213C6.58977 20.0806 4.0928 21.0073 1.38073 21.0073C0.913446 21.0073 0.453173 20.979 0 20.9276C2.56221 22.5808 5.60407 23.5447 8.87338 23.5447C19.5225 23.5447 25.3435 14.6816 25.3435 6.99513L25.324 6.24209C26.4614 5.42695 27.4453 4.40281 28.2195 3.23688Z" fill="#0F3964"/>
</g>
</svg>
