<svg width="21" height="21" viewBox="0 0 21 21" fill="none" xmlns="http://www.w3.org/2000/svg">
<g opacity="0.67">
<path d="M16.5536 12.9164C16.1244 12.4719 15.6067 12.2343 15.058 12.2343C14.5137 12.2343 13.9916 12.4675 13.5447 12.912L12.1465 14.2982C12.0315 14.2366 11.9164 14.1794 11.8058 14.1222C11.6465 14.043 11.4961 13.9681 11.3677 13.8889C10.058 13.0616 8.86774 11.9834 7.72615 10.5884C7.17306 9.89308 6.80138 9.30778 6.53147 8.71369C6.8943 8.38363 7.23058 8.04037 7.55801 7.71032C7.68191 7.5871 7.8058 7.45948 7.92969 7.33626C8.85889 6.41211 8.85889 5.21511 7.92969 4.29096L6.72173 3.08956C6.58456 2.95314 6.44297 2.81232 6.31023 2.6715C6.04474 2.39865 5.76598 2.117 5.47837 1.85296C5.04917 1.43049 4.5359 1.20605 3.99607 1.20605C3.45625 1.20605 2.93413 1.43049 2.49165 1.85296C2.48723 1.85736 2.48723 1.85736 2.4828 1.86176L0.978382 3.37121C0.412012 3.9345 0.0890036 4.62101 0.0182073 5.41755C-0.0879872 6.70256 0.292543 7.89955 0.584578 8.68288C1.30139 10.606 2.37218 12.3883 3.96953 14.2982C5.90757 16.5998 8.23943 18.4173 10.9031 19.6979C11.9208 20.1776 13.2792 20.7453 14.7969 20.8421C14.8899 20.8465 14.9872 20.8509 15.0757 20.8509C16.0978 20.8509 16.9562 20.4856 17.6288 19.7595C17.6332 19.7507 17.6421 19.7463 17.6465 19.7375C17.8766 19.4602 18.1421 19.2094 18.4208 18.941C18.6111 18.7605 18.8058 18.5713 18.996 18.3733C19.4341 17.92 19.6642 17.3919 19.6642 16.8506C19.6642 16.3049 19.4297 15.7812 18.9828 15.3412L16.5536 12.9164ZM18.1376 17.5503C18.1332 17.5503 18.1332 17.5547 18.1376 17.5503C17.9651 17.7352 17.7881 17.9024 17.5978 18.0872C17.3102 18.3601 17.0182 18.6461 16.7438 18.9674C16.2969 19.4426 15.7704 19.6671 15.0801 19.6671C15.0137 19.6671 14.943 19.6671 14.8766 19.6627C13.5624 19.5791 12.3412 19.0686 11.4253 18.6329C8.92084 17.4271 6.72173 15.7152 4.8943 13.5457C3.38546 11.737 2.37661 10.0647 1.70847 8.26921C1.29697 7.17343 1.14652 6.31969 1.21289 5.51436C1.25714 4.99948 1.45626 4.57261 1.82351 4.20735L3.33236 2.7067C3.54917 2.50427 3.77926 2.39425 4.00492 2.39425C4.28368 2.39425 4.50935 2.56148 4.65094 2.7023C4.65536 2.7067 4.65979 2.7111 4.66421 2.7155C4.93412 2.96634 5.19076 3.22599 5.46067 3.50323C5.59784 3.64405 5.73943 3.78488 5.88103 3.9301L7.08899 5.1315C7.55801 5.59798 7.55801 6.02925 7.08899 6.49572C6.96067 6.62334 6.83677 6.75096 6.70846 6.87418C6.33678 7.25265 5.9828 7.6047 5.59784 7.94796C5.58899 7.95676 5.58014 7.96116 5.57572 7.96996C5.19519 8.34843 5.26598 8.71809 5.34563 8.96893C5.35005 8.98213 5.35448 8.99533 5.3589 9.00853C5.67306 9.76546 6.11554 10.4784 6.7881 11.3277L6.79253 11.3321C8.01376 12.8284 9.30137 13.9946 10.7217 14.8879C10.9031 15.0023 11.089 15.0947 11.266 15.1827C11.4253 15.262 11.5757 15.3368 11.704 15.416C11.7217 15.4248 11.7394 15.438 11.7571 15.4468C11.9076 15.5216 12.0492 15.5568 12.1952 15.5568C12.5624 15.5568 12.7925 15.328 12.8677 15.2532L14.381 13.7481C14.5314 13.5985 14.7704 13.4181 15.0491 13.4181C15.3235 13.4181 15.5491 13.5897 15.6863 13.7393C15.6907 13.7437 15.6907 13.7437 15.6952 13.7481L18.1332 16.1729C18.589 16.6218 18.589 17.0839 18.1376 17.5503Z" fill="#0F3964"/>
<path d="M11.3149 4.96077C12.4742 5.1544 13.5273 5.70009 14.368 6.53623C15.2087 7.37237 15.753 8.41974 15.9521 9.57273C16.0008 9.86318 16.253 10.0656 16.5406 10.0656C16.576 10.0656 16.607 10.0612 16.6424 10.0568C16.9698 10.004 17.1866 9.69595 17.1335 9.3703C16.8946 7.97527 16.2309 6.70346 15.2176 5.69569C14.2043 4.68793 12.9255 4.02782 11.5229 3.79018C11.1955 3.73737 10.8902 3.95301 10.8326 4.27426C10.7751 4.59551 10.9875 4.90796 11.3149 4.96077Z" fill="#0F3964"/>
<path d="M20.9249 9.19776C20.5311 6.90059 19.4426 4.81024 17.7701 3.14677C16.0975 1.4833 13.9957 0.400722 11.686 0.00905734C11.363 -0.048152 11.0577 0.171884 11.0002 0.493137C10.9471 0.81879 11.1639 1.12244 11.4913 1.17965C13.5533 1.52731 15.4338 2.49987 16.9294 3.98291C18.4249 5.47035 19.3984 7.34066 19.7479 9.3914C19.7966 9.68184 20.0488 9.88428 20.3364 9.88428C20.3718 9.88428 20.4028 9.87988 20.4382 9.87548C20.7612 9.82707 20.9825 9.51902 20.9249 9.19776Z" fill="#0F3964"/>
</g>
</svg>
