<svg width="17" height="24" viewBox="0 0 17 24" fill="none" xmlns="http://www.w3.org/2000/svg">
<g opacity="0.67">
<path d="M8.5 0C3.8131 0 0 3.78506 0 8.4375C0 10.0094 0.438647 11.5434 1.26881 12.8743L8.01616 23.6676C8.14541 23.8744 8.37311 24 8.61801 24C8.6199 24 8.62174 24 8.62363 24C8.87065 23.9981 9.09883 23.8686 9.22571 23.6582L15.8011 12.7603C16.5854 11.4576 17 9.96277 17 8.4375C17 3.78506 13.1869 0 8.5 0ZM14.5853 12.0383L8.60729 21.9462L2.47289 12.1334C1.78188 11.0257 1.40722 9.74766 1.40722 8.4375C1.40722 4.56047 4.59425 1.39687 8.5 1.39687C12.4058 1.39687 15.5881 4.56047 15.5881 8.4375C15.5881 9.7088 15.2381 10.9541 14.5853 12.0383Z" fill="#0F3964"/>
<path d="M8.5 4.21875C6.15655 4.21875 4.25 6.11128 4.25 8.4375C4.25 10.7489 6.12552 12.6562 8.5 12.6562C10.9038 12.6562 12.75 10.7235 12.75 8.4375C12.75 6.11128 10.8435 4.21875 8.5 4.21875ZM8.5 11.2594C6.92953 11.2594 5.65722 9.9922 5.65722 8.4375C5.65722 6.88669 6.9377 5.61563 8.5 5.61563C10.0623 5.61563 11.3381 6.88669 11.3381 8.4375C11.3381 9.96952 10.0954 11.2594 8.5 11.2594Z" fill="#0F3964"/>
</g>
</svg>
